<?xml version="1.0" encoding="utf-8"?>
<!-- Generator: Adobe Illustrator 23.0.1, SVG Export Plug-In . SVG Version: 6.00 Build 0)  -->
<svg version="1.1" id="Camada_1" xmlns="http://www.w3.org/2000/svg" xmlns:xlink="http://www.w3.org/1999/xlink" x="0px" y="0px"
	 viewBox="0 0 80 85.3" style="enable-background:new 0 0 80 85.3;" xml:space="preserve">
<style type="text/css">
	.st0{fill:#96ff54;}
</style>
<path class="st0" d="M73.7,53.8c-1.4,0-2.6,0.6-3.5,1.6l-5.3-2.3c0.9-2.6,1.3-5.3,1.3-8.2c0-1-0.1-1.9-0.2-2.8l2-0.3
	c0.8,1.5,2.4,2.6,4.3,2.6c2.7,0,4.8-2.2,4.8-4.8s-2.2-4.8-4.8-4.8c-2.4,0-4.3,1.7-4.7,3.9L65.5,39c-0.7-3-2-5.9-3.6-8.4l6.6-4.8
	c0.8,0.5,1.7,0.9,2.7,0.9c2.7,0,4.8-2.2,4.8-4.8s-2.2-4.8-4.8-4.8c-2.7,0-4.8,2.2-4.8,4.8c0,0.5,0.1,1,0.2,1.4L60,28.2
	c-1.7-2-3.8-3.8-6-5.2l2.5-4.7c0.2,0,0.5,0.1,0.8,0.1c2.7,0,4.8-2.2,4.8-4.8s-2.2-4.8-4.8-4.8c-2.7,0-4.8,2.2-4.8,4.8
	c0,1.3,0.5,2.4,1.3,3.3l-2.5,4.7c-2-0.9-4.1-1.6-6.2-2l0.3-2.6c2.1-0.5,3.7-2.4,3.7-4.7c0-2.7-2.2-4.8-4.8-4.8s-4.8,2.2-4.8,4.8
	c0,1.9,1.1,3.6,2.8,4.4L42,19.2c-0.5,0-1,0-1.5,0c-1.4,0-2.8,0.1-4.2,0.3l-1.8-7.9c1.4-0.9,2.3-2.4,2.3-4.1c0-2.7-2.2-4.8-4.8-4.8
	c-2.7,0-4.8,2.2-4.8,4.8c0,2.5,1.9,4.5,4.3,4.8l1.8,7.9c-4.4,1.3-8.4,3.8-11.5,7.1L19.1,25c0.2-0.5,0.3-1.1,0.3-1.7
	c0-2.7-2.2-4.8-4.8-4.8s-4.8,2.2-4.8,4.8s2.2,4.8,4.8,4.8c0.9,0,1.7-0.3,2.5-0.7l2.7,2.3c-3,4.1-4.9,9.1-5.1,14.5l-3.9,0.1
	c-0.7-1.8-2.4-3.1-4.5-3.1c-2.7,0-4.8,2.2-4.8,4.8s2.2,4.8,4.8,4.8c2.1,0,3.9-1.4,4.6-3.4l3.9-0.1c0.3,3,1,5.9,2.3,8.6l-1.8,0.9
	c-0.9-0.8-2-1.3-3.3-1.3c-2.7,0-4.8,2.2-4.8,4.8c0,2.7,2.2,4.8,4.8,4.8s4.8-2.2,4.8-4.8c0-0.3,0-0.5-0.1-0.7l1.8-0.9
	c1,1.6,2.1,3,3.4,4.3l-1.4,1.5c-0.6-0.3-1.2-0.4-1.9-0.4c-2.7,0-4.8,2.2-4.8,4.8c0,2.7,2.2,4.8,4.8,4.8s4.8-2.2,4.8-4.8
	c0-0.8-0.2-1.6-0.6-2.3l1.4-1.5c1.8,1.5,3.8,2.7,5.9,3.6l-2.3,6.1h-0.1c-2.7,0-4.8,2.2-4.8,4.8c0,2.7,2.2,4.8,4.8,4.8
	s4.8-2.2,4.8-4.8c0-1.5-0.7-2.8-1.8-3.7l2.3-6.1c2.4,0.7,4.9,1.1,7.6,1.1c1.3,0,2.7-0.1,4-0.3l0.3,1.3c-1.4,0.8-2.3,2.4-2.3,4.1
	c0,2.7,2.2,4.8,4.8,4.8s4.8-2.2,4.8-4.8c0-2.5-1.9-4.5-4.2-4.8l-0.3-1.4c2.3-0.6,4.5-1.6,6.4-2.8l1.7,3.2c-0.6,0.8-1,1.8-1,3
	c0,2.7,2.2,4.8,4.8,4.8c2.7,0,4.8-2.2,4.8-4.8s-2.2-4.8-4.8-4.8c-0.4,0-0.8,0.1-1.1,0.1l-2.2-3.3c3.1-2.5,5.6-5.6,7.4-9.2l5.2,2.3
	c0,0.1,0,0.2,0,0.4c0,2.7,2.2,4.8,4.8,4.8c2.7,0,4.8-2.2,4.8-4.8C78.5,56,76.4,53.8,73.7,53.8z"/>
</svg>
